STARTFONT 2.1
COMMENT CDDL HEADER START
COMMENT
COMMENT The contents of this file are subject to the terms of the
COMMENT Common Development and Distribution License (the "License").
COMMENT You may not use this file except in compliance with the License.
COMMENT
COMMENT You can obtain a copy of the license at src/OPENSOLARIS.LICENSE
COMMENT or http://www.opensolaris.org/os/licensing.
COMMENT See the License for the specific language governing permissions
COMMENT and limitations under the License.
COMMENT
COMMENT When distributing Covered Code, include this CDDL HEADER in each
COMMENT file and include the License file at src/OPENSOLARIS.LICENSE.
COMMENT If applicable, add the following below this CDDL HEADER, with the
COMMENT fields enclosed by brackets "[]" replaced with your own identifying
COMMENT information: Portions Copyright [yyyy] [name of copyright owner]
COMMENT
COMMENT CDDL HEADER END
COMMENT
COMMENT Copyright (c) 1998-2001 by Sun Microsystems, Inc.
COMMENT All rights reserved.
COMMENT
COMMENT "@(#)splmt16.bdf	1.10 01/08/15 SMI"
COMMENT 
FONT -sun-supplement-medium-r-normal--16-160-75-75-p-160-unicode-fontspecific
SIZE 16 72 72
FONTBOUNDINGBOX 16 16 0 -3
STARTPROPERTIES 19
FONTNAME_REGISTRY ""
FOUNDRY "sun"
FAMILY_NAME "supplement"
WEIGHT_NAME "medium"
SLANT "R"
SETWIDTH_NAME "normal"
ADD_STYLE_NAME ""
PIXEL_SIZE 16
POINT_SIZE 160
RESOLUTION_X 75
RESOLUTION_Y 75
SPACING "P"
AVERAGE_WIDTH 160
CHARSET_REGISTRY "unicode"
CHARSET_ENCODING "fontspecific"
DEFAULT_CHAR 0
FONT_DESCENT 3
FONT_ASCENT 15
COPYRIGHT "Copyright (c) 1998-2001 by Sun Microsystems, Inc."
ENDPROPERTIES
CHARS 24
STARTCHAR notdefined
ENCODING 0
SWIDTH 500 0
DWIDTH 8 0
BBX 8 14 0 -3
BITMAP
0000
4900
9200
2400
4900
9200
2400
4900
9200
2400
4900
9200
2400
0000
ENDCHAR
STARTCHAR no_half
ENCODING 1
SWIDTH 500 0
DWIDTH 8 0
BBX 8 14 0 -3
BITMAP
0000
ff00
c300
c300
a500
a500
9900
9900
a500
a500
c300
c300
ff00
0000
ENDCHAR
STARTCHAR no_full
ENCODING 2
SWIDTH 1000 0
DWIDTH 16 0
BBX 16 14 0 -3
BITMAP
0000
7ffe
6006
501a
4822
4642
4182
4342
4422
4812
500a
6006
7ffe
0000
ENDCHAR
STARTCHAR euro_20ac
ENCODING 3
SWIDTH 500 0
DWIDTH 8 0
BBX 8 14 0 -3
BITMAP
0000
0000
1c00
2200
4100
4000
fe00
4000
fc00
4000
4100
2200
1c00
0000
ENDCHAR
STARTCHAR replcmnt_fffd
ENCODING 4
SWIDTH 500 0
DWIDTH 8 0
BBX 8 14 0 -3
BITMAP
0000
1800
3c00
2400
5a00
5a00
f300
e700
6e00
7e00
2400
3c00
1800
0000
ENDCHAR
STARTCHAR OE_0152
ENCODING 5
SWIDTH 500 0
DWIDTH 8 0
BBX 8 14 0 -3
BITMAP
0000
0000
0000
6f00
9800
9800
9800
9e00
9800
9800
9800
9800
6f00
0000
ENDCHAR
STARTCHAR oe_0153
ENCODING 6
SWIDTH 500 0
DWIDTH 8 0
BBX 8 14 0 -3
BITMAP
0000
0000
0000
0000
0000
6600
9900
9900
9f00
9800
9800
9900
6600
0000
ENDCHAR
STARTCHAR Yumlaut_0178
ENCODING 7
SWIDTH 500 0
DWIDTH 8 0
BBX 8 14 0 -3
BITMAP
0000
0000
2800
2800
8200
4400
4400
2800
2800
1000
1000
1000
1000
0000
ENDCHAR
STARTCHAR Ccircumflex_0108
ENCODING 8
SWIDTH 500 0
DWIDTH 8 0
BBX 8 14 0 -1
BITMAP
0c00
1200
0000
1f00
3100
6000
4000
4000
4000
4000
6000
3000
1f00
0000
ENDCHAR
STARTCHAR ccircumflex_0109
ENCODING 9
SWIDTH 500 0
DWIDTH 8 0
BBX 8 14 0 -2
BITMAP
0000
0c00
1200
0000
1e00
2000
4000
4000
4000
4000
2000
1e00
0000
0000
ENDCHAR
STARTCHAR Cdotabove_010a
ENCODING 10
SWIDTH 500 0
DWIDTH 8 0
BBX 8 14 0 -1
BITMAP
0c00
0c00
0000
1f00
3100
6000
4000
4000
4000
4000
6000
3000
1f00
0000
ENDCHAR
STARTCHAR cdotabove_010b
ENCODING 11
SWIDTH 500 0
DWIDTH 8 0
BBX 8 14 0 -2
BITMAP
0000
0c00
0c00
0000
1e00
2000
4000
4000
4000
4000
2000
1e00
0000
0000
ENDCHAR
STARTCHAR Gcircumflex_011c
ENCODING 12
SWIDTH 500 0
DWIDTH 8 0
BBX 8 14 0 -1
BITMAP
0c00
1200
0000
1f00
3100
6000
4000
4000
4100
4100
6100
3100
1f00
0000
ENDCHAR
STARTCHAR gcircumflex_011d
ENCODING 13
SWIDTH 500 0
DWIDTH 8 0
BBX 8 14 0 -3
BITMAP
1800
2400
0000
3a00
2600
4200
4200
4200
4200
6600
3a00
0200
4200
7c00
ENDCHAR
STARTCHAR Gdotabove_0120
ENCODING 14
SWIDTH 500 0
DWIDTH 8 0
BBX 8 14 0 -1
BITMAP
0c00
0c00
0000
1f00
3100
6000
4000
4000
4100
4100
6100
3100
1f00
0000
ENDCHAR
STARTCHAR gdotabove_0121
ENCODING 15
SWIDTH 500 0
DWIDTH 8 0
BBX 8 14 0 -3
BITMAP
1800
1800
0000
3a00
2600
4200
4200
4200
4200
6600
3a00
0200
4200
7c00
ENDCHAR
STARTCHAR Hcircumflex_0124
ENCODING 16
SWIDTH 500 0
DWIDTH 8 0
BBX 8 14 0 -1
BITMAP
1800
2400
0000
4200
4200
4200
4200
7e00
4200
4200
4200
4200
4200
0000
ENDCHAR
STARTCHAR hcircumflex_0125
ENCODING 17
SWIDTH 500 0
DWIDTH 8 0
BBX 8 14 0 -1
BITMAP
1800
2400
0000
4000
4000
5c00
6200
4200
4200
4200
4200
4200
4200
0000
ENDCHAR
STARTCHAR Jcircumflex_0134
ENCODING 18
SWIDTH 500 0
DWIDTH 8 0
BBX 8 14 0 -1
BITMAP
0c00
1200
0000
3c00
0400
0400
0400
0400
0400
0400
0400
0400
7800
0000
ENDCHAR
STARTCHAR jcircumflex_0135
ENCODING 19
SWIDTH 500 0
DWIDTH 8 0
BBX 8 14 0 -3
BITMAP
0c00
1200
0000
3c00
0400
0400
0400
0400
0400
0400
0400
0400
0400
7800
ENDCHAR
STARTCHAR Scircumflex_015c
ENCODING 20
SWIDTH 500 0
DWIDTH 8 0
BBX 8 14 0 -1
BITMAP
1800
2400
0000
3c00
4400
4000
6000
3000
0c00
0200
0200
4600
7c00
0000
ENDCHAR
STARTCHAR scircumflex_015d
ENCODING 21
SWIDTH 500 0
DWIDTH 8 0
BBX 8 14 0 -1
BITMAP
0000
0000
1800
2400
0000
3c00
4000
4000
3000
0c00
0400
0400
7800
0000
ENDCHAR
STARTCHAR Ubreve_016c
ENCODING 22
SWIDTH 500 0
DWIDTH 8 0
BBX 8 14 0 -1
BITMAP
4200
3c00
0000
4200
4200
4200
4200
4200
4200
4200
4200
6600
3c00
0000
ENDCHAR
STARTCHAR ubreve_016d
ENCODING 23
SWIDTH 500 0
DWIDTH 8 0
BBX 8 14 0 -1
BITMAP
0000
0000
4200
3c00
0000
4200
4200
4200
4200
4200
4200
4600
3a00
0000
ENDCHAR
ENDFONT
